<svg viewBox="0 0 500 568" xmlns="http://www.w3.org/2000/svg" fill-rule="evenodd" clip-rule="evenodd" stroke-linecap="round" stroke-linejoin="round" stroke-miterlimit="1.5"><path d="M181.69 204.344L254.678 20.83l234.33 101.137-161.096 148.052-146.222-65.674z" fill="#fbc8ff"/><path d="M489.008 122.881l.457 166.588-160.638 85.582-.457-105.72 160.638-146.45z" fill="#fabdff"/><path d="M255.83 21.51L489.009 122.88l.915 167.96-233.932-101.44-.16-167.891z" fill="#a9d4ff"/><path d="M255.472 190.266l234.222 100.166-160.578 83.189-148.005-62.663 74.36-120.692z" fill="#f688ff" fill-opacity=".702"/><path d="M328.37 269.332l1.144 105.032-148.74-63.385.916-106.635 146.68 64.988z" fill="#a6fbb6" fill-opacity=".498"/><path d="M276.53-32.913L52.377 522.977" fill="none" stroke="#929292" stroke-width=".4767116"/><path d="M554.047 62.164L52.377 522.977" fill="none" stroke="#929292" stroke-width=".4760662"/><path d="M568.92 247.283L52.378 522.976" fill="none" stroke="#929292" stroke-width=".4766432"/><path d="M391.047-34.45L52.377 522.975" fill="none" stroke="#929292" stroke-width=".4750564"/><path d="M1479 1237.24L670 852v642l809 385.24v-642z" fill="none" stroke="#000" stroke-width="5.47" transform="matrix(.18272 0 0 .16513 58.325 64.526)"/><path d="M1479 1237.24L670 852v642l809 385.24v-642z" fill="none" stroke="#000" stroke-width="3.46" transform="matrix(.28946 0 0 .26158 60.725 -201.55)"/><path d="M180.75 205.216L254.66 21.32M328.573 269.435l160.258-147.366M328.573 374.843l160.258-84.813M180.75 310.395l73.911-120.364" fill="none" stroke="#000" stroke-width=".9542211"/><ellipse cx="444.5" cy="895.5" rx="52.5" ry="50.5" stroke="#030303" stroke-width="3.35" transform="matrix(.1331 0 0 .1511 -27.387 399.308)"/><path d="M268.458 558.348C288.79 525.842 354.8 502 433 502s144.21 23.842 164.542 56.348C552.951 545.022 495.572 537 433 537s-119.951 8.022-164.542 21.348z" stroke="#929292" stroke-width="3.56" transform="matrix(.12522 0 0 .14216 -22.448 451.613)"/><path d="M268.458 558.348C288.79 525.842 354.8 502 433 502s144.21 23.842 164.542 56.348C552.951 545.022 495.572 537 433 537s-119.951 8.022-164.542 21.348z" stroke="#929292" stroke-width="3.56" transform="matrix(.12522 0 0 -.14216 -22.448 617.613)"/><text x="1932.37" y="2074.34" font-family="'Arial-BoldMT','Arial',sans-serif" font-weight="700" font-size="101.279" fill="#003bff" transform="matrix(.45183 .0067 -.0067 .45183 -703.233 -850.788)">far</text><text x="1932.37" y="2074.34" font-family="'Arial-BoldMT','Arial',sans-serif" font-weight="700" font-size="101.279" fill="#2aaa4a" transform="matrix(.45183 .0067 -.0067 .45183 -803.517 -741.628)">near</text><text x="1932.37" y="2074.34" font-family="'Arial-BoldMT','Arial',sans-serif" font-weight="700" font-size="101.279" fill="#ff0030" transform="matrix(.45183 .0067 -.0067 .45183 -585.526 -533.656)">fov</text><path d="M111.166 220.636l1.858-4.41 52.717 22.213 1.739-4.127 8.088 10.863-13.423 1.8 1.738-4.127-52.717-22.212z" fill="#5ec27e"/><path d="M186.787 109.58l1.891-4.49 52.523 22.13 1.77-4.2 8.234 11.06-13.666 1.83 1.77-4.2-52.522-22.13z" fill="#003bff"/><path d="M1057 1535c81.34 96.7 104.96 148.82 42.06 287" fill="none" stroke="#f02" stroke-width="42.65" transform="matrix(.1471 0 0 .18594 91.513 71.977)"/><g><path d="M249.859 418.512l-.148-18.076 13.606 6.008-13.458 12.068z" fill="#ff0030"/></g><g><path d="M240.032 348.9l16.483 7.785-12.06 9.899-4.423-17.685z" fill="#ff0030"/></g></svg>