<svg viewBox="0 0 650 512" xmlns="http://www.w3.org/2000/svg" fill-rule="evenodd" clip-rule="evenodd" stroke-linecap="round" stroke-linejoin="round" stroke-miterlimit="1.5"><path d="M394.725 136H-60.761l227.382 59h11.29l216.814-59z" fill="#e4ebff" stroke="#000" stroke-width=".03" transform="matrix(1.30527 0 0 4.39451 101.309 -502.263)"/><path d="M591 0v512M537.913 0v512M484.826 0v512M431.739 0v512M378.653 0v512" fill="none" stroke="#000" stroke-width=".1"/><path d="M325.566 0v512" fill="none" stroke="#000"/><path d="M272.479 0v512M219.392 0v512M166.305 0v512M113.305 0v512M60.218 0v512" fill="none" stroke="#000" stroke-width=".1"/><g><path d="M256 0v512" fill="none" stroke="#000" stroke-width=".09" transform="matrix(0 -1 1.26953 0 0 299.087)"/><path d="M256 0v512" fill="none" stroke="#000" stroke-width=".09" transform="matrix(0 -1 1.26953 0 0 352.174)"/><path d="M256 0v512" fill="none" stroke="#000" stroke-width=".09" transform="matrix(0 -1 1.26953 0 0 405.261)"/><path d="M256 0v512" fill="none" stroke="#000" stroke-width=".09" transform="matrix(0 -1 1.26953 0 0 458.347)"/><path d="M256 0v512" fill="none" stroke="#000" stroke-width=".88" transform="matrix(0 -1 1.26953 0 0 511.434)"/><path d="M256 0v512" fill="none" stroke="#000" stroke-width=".09" transform="matrix(0 -1 1.26953 0 0 564.521)"/><path d="M256 0v512" fill="none" stroke="#000" stroke-width=".09" transform="matrix(0 -1 1.26953 0 0 617.608)"/><path d="M256 0v512" fill="none" stroke="#000" stroke-width=".09" transform="matrix(0 -1 1.26953 0 0 670.695)"/><path d="M256 0v512" fill="none" stroke="#000" stroke-width=".09" transform="matrix(0 -1 1.26953 0 0 723.782)"/></g><g><text x="278.451" y="492.641" font-family="'Arial-BoldMT','Arial',sans-serif" font-weight="700" font-size="36" transform="translate(69)">+Z</text></g><g><text x="278.451" y="492.641" font-family="'Arial-BoldMT','Arial',sans-serif" font-weight="700" font-size="36" transform="translate(69 -457)">-Z</text></g><g><text x="278.451" y="492.641" font-family="'Arial-BoldMT','Arial',sans-serif" font-weight="700" font-size="36" transform="translate(-270 -200)">-X</text></g><g><text x="278.451" y="492.641" font-family="'Arial-BoldMT','Arial',sans-serif" font-weight="700" font-size="36" transform="translate(318 -200)">+X</text></g><g><path d="M325.817 387L313 360.908l26 .182L325.816 387z" fill="#aaa" stroke="#000"/></g><g><path fill="#aaa" stroke="#000" d="M305.909 379h40v40h-40z"/></g><g><path fill="#4a8" stroke="#000" stroke-width="1.0028538" d="M295.909 226h60v60h-60z"/></g><circle cx="325.939" cy="361.091" r="4.909" stroke="#000" stroke-width=".1"/></svg>